<svg xmlns="http://www.w3.org/2000/svg" xmlns:xlink="http://www.w3.org/1999/xlink" width="36" height="36" viewBox="0 0 36 36" fill="none"><g opacity="1"  transform="translate(0 0)"><mask id="bg-mask-0" fill="white"><use transform="translate(0 0)" xlink:href="#path_0"></use></mask><g mask="url(#bg-mask-0)" ><path  id="路径 1" style="fill:#333333; opacity:1;" d="M6.83333 4.5C6.83333 3.30338 7.80338 2.33333 9 2.33333L30 2.33333C31.1966 2.33333 32.1666 3.30338 32.1666 4.5L32.1666 31.5C32.1666 32.6966 31.1966 33.6666 30 33.6666L9 33.6666C7.80338 33.6666 6.83333 32.6966 6.83333 31.5L6.83333 4.5L8.16667 4.5L8.16667 31.5C8.16667 31.9602 8.53976 32.3333 9 32.3333L30 32.3333C30.4602 32.3333 30.8333 31.9602 30.8333 31.5L30.8333 4.5C30.8333 4.03976 30.4602 3.66667 30 3.66667L9 3.66667C8.53976 3.66667 8.16667 4.03976 8.16667 4.5L6.83333 4.5Z"></path><path  id="路径 2" style="fill:#333333; opacity:1;" d="M26.1665 4.5L26.1665 31.5Q26.1665 31.5657 26.1537 31.63Q26.1409 31.6944 26.1157 31.7551Q26.0906 31.8158 26.0541 31.8704Q26.0177 31.925 25.9713 31.9714Q25.9248 32.0178 25.8703 32.0543Q25.8157 32.0908 25.755 32.1159Q25.6944 32.141 25.63 32.1538Q25.5656 32.1667 25.5 32.1667Q25.4344 32.1667 25.37 32.1538Q25.3056 32.141 25.245 32.1159Q25.1843 32.0908 25.1297 32.0543Q25.0751 32.0178 25.0287 31.9714Q24.9823 31.925 24.9459 31.8704Q24.9094 31.8158 24.8843 31.7551Q24.8591 31.6944 24.8463 31.63Q24.8335 31.5657 24.8335 31.5L24.8335 4.5Q24.8335 4.43434 24.8463 4.36994Q24.8591 4.30554 24.8843 4.24488Q24.9094 4.18421 24.9459 4.12962Q24.9823 4.07502 25.0287 4.02859Q25.0751 3.98217 25.1297 3.94569Q25.1843 3.90921 25.245 3.88408Q25.3056 3.85895 25.37 3.84614Q25.4344 3.83333 25.5 3.83333Q25.5656 3.83333 25.63 3.84614Q25.6944 3.85895 25.755 3.88408Q25.8157 3.90921 25.8703 3.94569Q25.9248 3.98217 25.9713 4.02859Q26.0177 4.07502 26.0541 4.12962Q26.0906 4.18421 26.1157 4.24488Q26.1409 4.30554 26.1537 4.36994Q26.1665 4.43434 26.1665 4.5Z"></path><path  id="路径 3" style="fill:#333333; opacity:1;" d="M4.5 9.83339L10.5 9.83339Q10.5657 9.83339 10.6301 9.8462Q10.6945 9.85901 10.7551 9.88413Q10.8158 9.90926 10.8704 9.94573Q10.925 9.98221 10.9714 10.0286Q11.0178 10.0751 11.0543 10.1297Q11.0908 10.1842 11.1159 10.2449Q11.141 10.3056 11.1539 10.37Q11.1667 10.4343 11.1667 10.5Q11.1667 10.5657 11.1539 10.63Q11.141 10.6944 11.1159 10.7551Q11.0908 10.8158 11.0543 10.8703Q11.0178 10.9249 10.9714 10.9714Q10.925 11.0178 10.8704 11.0543Q10.8158 11.0907 10.7551 11.1159Q10.6945 11.141 10.6301 11.1538Q10.5657 11.1666 10.5 11.1666L4.5 11.1666Q4.43434 11.1666 4.36994 11.1538Q4.30554 11.141 4.24488 11.1159Q4.18421 11.0907 4.12962 11.0543Q4.07502 11.0178 4.0286 10.9714Q3.98217 10.9249 3.94569 10.8703Q3.90921 10.8158 3.88408 10.7551Q3.85895 10.6944 3.84614 10.63Q3.83333 10.5657 3.83333 10.5Q3.83333 10.4343 3.84614 10.37Q3.85895 10.3056 3.88408 10.2449Q3.90921 10.1842 3.94569 10.1297Q3.98217 10.0751 4.0286 10.0286Q4.07502 9.98221 4.12962 9.94573Q4.18421 9.90926 4.24488 9.88413Q4.30554 9.85901 4.36994 9.8462Q4.43434 9.83339 4.5 9.83339Z"></path><path  id="路径 4" style="fill:#333333; opacity:1;" d="M4.5 17.3333L10.5 17.3333Q10.5657 17.3333 10.6301 17.3461Q10.6945 17.3589 10.7551 17.384Q10.8158 17.4091 10.8704 17.4456Q10.925 17.4821 10.9714 17.5285Q11.0178 17.575 11.0543 17.6296Q11.0908 17.6842 11.1159 17.7448Q11.141 17.8055 11.1539 17.8699Q11.1667 17.9343 11.1667 18Q11.1667 18.0657 11.1539 18.1301Q11.141 18.1945 11.1159 18.2552Q11.0908 18.3158 11.0543 18.3704Q11.0178 18.425 10.9714 18.4715Q10.925 18.5179 10.8704 18.5544Q10.8158 18.5909 10.7551 18.616Q10.6945 18.6411 10.6301 18.6539Q10.5657 18.6667 10.5 18.6667L4.5 18.6667Q4.43434 18.6667 4.36994 18.6539Q4.30554 18.6411 4.24488 18.616Q4.18421 18.5909 4.12962 18.5544Q4.07502 18.5179 4.0286 18.4715Q3.98217 18.425 3.94569 18.3704Q3.90921 18.3158 3.88408 18.2552Q3.85895 18.1945 3.84614 18.1301Q3.83333 18.0657 3.83333 18Q3.83333 17.9343 3.84614 17.8699Q3.85895 17.8055 3.88408 17.7448Q3.90921 17.6842 3.94569 17.6296Q3.98217 17.575 4.0286 17.5285Q4.07502 17.4821 4.12962 17.4456Q4.18421 17.4091 4.24488 17.384Q4.30554 17.3589 4.36994 17.3461Q4.43434 17.3333 4.5 17.3333Z"></path><path  id="路径 5" style="fill:#333333; opacity:1;" d="M4.5 24.8335L10.5 24.8335Q10.5657 24.8335 10.6301 24.8463Q10.6945 24.8591 10.7551 24.8843Q10.8158 24.9094 10.8704 24.9459Q10.925 24.9823 10.9714 25.0287Q11.0178 25.0751 11.0543 25.1297Q11.0908 25.1843 11.1159 25.245Q11.141 25.3056 11.1539 25.37Q11.1667 25.4344 11.1667 25.5Q11.1667 25.5656 11.1539 25.63Q11.141 25.6944 11.1159 25.755Q11.0908 25.8157 11.0543 25.8703Q11.0178 25.9248 10.9714 25.9713Q10.925 26.0177 10.8704 26.0541Q10.8158 26.0906 10.7551 26.1157Q10.6945 26.1409 10.6301 26.1537Q10.5657 26.1665 10.5 26.1665L4.5 26.1665Q4.43434 26.1665 4.36994 26.1537Q4.30554 26.1409 4.24488 26.1157Q4.18421 26.0906 4.12962 26.0541Q4.07502 26.0177 4.0286 25.9713Q3.98217 25.9248 3.94569 25.8703Q3.90921 25.8157 3.88408 25.755Q3.85895 25.6944 3.84614 25.63Q3.83333 25.5656 3.83333 25.5Q3.83333 25.4344 3.84614 25.37Q3.85895 25.3056 3.88408 25.245Q3.90921 25.1843 3.94569 25.1297Q3.98217 25.0751 4.0286 25.0287Q4.07502 24.9823 4.12962 24.9459Q4.18421 24.9094 4.24488 24.8843Q4.30554 24.8591 4.36994 24.8463Q4.43434 24.8335 4.5 24.8335Z"></path><path  id="路径 6" style="fill:#333333; opacity:1;" d="M20.25 2.33332L29.25 2.33332Q29.3157 2.33332 29.3801 2.34613Q29.4445 2.35894 29.5051 2.38407Q29.5658 2.4092 29.6204 2.44568Q29.675 2.48216 29.7214 2.52859Q29.7678 2.57502 29.8043 2.62961Q29.8408 2.68421 29.8659 2.74487Q29.891 2.80554 29.9038 2.86994Q29.9167 2.93434 29.9167 3Q29.9167 3.06566 29.9038 3.13006Q29.891 3.19446 29.8659 3.25513Q29.8408 3.31579 29.8043 3.37039Q29.7678 3.42498 29.7214 3.47141Q29.675 3.51784 29.6204 3.55432Q29.5658 3.5908 29.5051 3.61593Q29.4445 3.64106 29.3801 3.65387Q29.3157 3.66668 29.25 3.66668L20.25 3.66668Q20.1843 3.66668 20.1199 3.65387Q20.0555 3.64106 19.9949 3.61593Q19.9342 3.5908 19.8796 3.55432Q19.825 3.51784 19.7786 3.47141Q19.7322 3.42498 19.6957 3.37039Q19.6592 3.31579 19.6341 3.25513Q19.609 3.19446 19.5961 3.13006Q19.5833 3.06566 19.5833 3Q19.5833 2.93434 19.5961 2.86994Q19.609 2.80554 19.6341 2.74487Q19.6592 2.68421 19.6957 2.62961Q19.7322 2.57502 19.7786 2.52859Q19.825 2.48216 19.8796 2.44568Q19.9342 2.4092 19.9949 2.38407Q20.0555 2.35894 20.1199 2.34613Q20.1843 2.33332 20.25 2.33332Z"></path><path  id="路径 7" style="fill:#333333; opacity:1;" d="M20.25 32.3335L29.25 32.3335Q29.3157 32.3335 29.3801 32.3463Q29.4445 32.3591 29.5051 32.3843Q29.5658 32.4094 29.6204 32.4458Q29.675 32.4823 29.7214 32.5287Q29.7678 32.5751 29.8043 32.6297Q29.8408 32.6843 29.8659 32.7449Q29.891 32.8056 29.9038 32.87Q29.9167 32.9344 29.9167 33Q29.9167 33.0656 29.9038 33.13Q29.891 33.1944 29.8659 33.255Q29.8408 33.3157 29.8043 33.3703Q29.7678 33.4248 29.7214 33.4713Q29.675 33.5177 29.6204 33.5541Q29.5658 33.5906 29.5051 33.6157Q29.4445 33.6409 29.3801 33.6537Q29.3157 33.6665 29.25 33.6665L20.25 33.6665Q20.1843 33.6665 20.1199 33.6537Q20.0555 33.6409 19.9949 33.6157Q19.9342 33.5906 19.8796 33.5541Q19.825 33.5177 19.7786 33.4713Q19.7322 33.4248 19.6957 33.3703Q19.6592 33.3157 19.6341 33.255Q19.609 33.1944 19.5961 33.13Q19.5833 33.0656 19.5833 33Q19.5833 32.9344 19.5961 32.87Q19.609 32.8056 19.6341 32.7449Q19.6592 32.6843 19.6957 32.6297Q19.7322 32.5751 19.7786 32.5287Q19.825 32.4823 19.8796 32.4458Q19.9342 32.4094 19.9949 32.3843Q20.0555 32.3591 20.1199 32.3463Q20.1843 32.3335 20.25 32.3335Z"></path></g></g><defs><rect id="path_0" x="0" y="0" width="36" height="36" rx="0" ry="0"/></defs></svg>